<svg version="1.0" xmlns="http://www.w3.org/2000/svg" width="346.667" height="346.667" viewBox="0 0 260 260"><path d="M0 130v130h260V0H0v130zm145.2-96.5c23.4 4.1 44.5 16.4 58.8 34.1 46.7 58.2 14.7 143.9-58.8 156.9-21 3.8-44.9-.3-63.6-11C38.1 188.8 20.7 137.1 40 90.6c1.8-4.2 3.4-7.6 3.7-7.6.3 0 2.2 1.2 4.2 2.7l3.8 2.7-3.5 8.4C25.3 153.2 67.8 215.9 129 215.9c47.9 0 86.9-39 86.9-86.9 0-35.3-21.3-66.9-54.6-80.8-17.1-7.2-41.1-8-59.1-2.1-3.5 1.2-6.4 1.9-6.6 1.8-1.5-2.1-4.7-8.1-4.5-8.3 1.2-1 15.1-5 21.2-6.1 9.5-1.7 23.4-1.8 32.9 0zm-67.3 8.8c11.7 7.7 13.4 23.5 3.6 33.2-9.3 9.3-24.1 8.2-32.2-2.3-7.9-10.4-4.3-25.5 7.7-32 6.2-3.3 15-2.8 20.9 1.1zM145 75.6c18.8 5.3 34.9 22.4 39 41.5 1.8 8.1.8 24-1.8 31.4-5.5 15.1-18.6 28.2-33.7 33.7-7.4 2.6-23.3 3.6-31.4 1.8-19.3-4.1-35.9-19.9-41.7-39.5-2.5-8.5-2.3-23 .5-31.5 9.5-29.5 39.4-45.6 69.1-37.4z"/></svg>