<?xml version="1.0" standalone="no"?>
<!DOCTYPE svg PUBLIC "-//W3C//DTD SVG 20010904//EN"
 "http://www.w3.org/TR/2001/REC-SVG-20010904/DTD/svg10.dtd">
<svg version="1.0" xmlns="http://www.w3.org/2000/svg"
 width="260.000000pt" height="260.000000pt" viewBox="0 0 260.000000 260.000000"
 preserveAspectRatio="xMidYMid meet">
<metadata>
Created by potrace 1.11, written by Peter Selinger 2001-2013
</metadata>
<g transform="translate(0.000000,260.000000) scale(0.100000,-0.100000)"
fill="#000000" stroke="none">
<path d="M0 1300 l0 -1300 1300 0 1300 0 0 1300 0 1300 -1300 0 -1300 0 0
-1300z m1452 965 c234 -41 445 -164 588 -341 467 -582 147 -1439 -588 -1569
-210 -38 -449 3 -636 110 -435 247 -609 764 -416 1229 18 42 34 76 37 76 3 0
22 -12 42 -27 l38 -27 -35 -84 c-229 -564 196 -1191 808 -1191 479 0 869 390
869 869 0 353 -213 669 -546 808 -171 72 -411 80 -591 21 -35 -12 -64 -19 -66
-18 -15 21 -47 81 -45 83 12 10 151 50 212 61 95 17 234 18 329 0z m-673 -88
c117 -77 134 -235 36 -332 -93 -93 -241 -82 -322 23 -79 104 -43 255 77 320
62 33 150 28 209 -11z m671 -333 c188 -53 349 -224 390 -415 18 -81 8 -240
-18 -314 -55 -151 -186 -282 -337 -337 -74 -26 -233 -36 -314 -18 -193 41
-359 199 -417 395 -25 85 -23 230 5 315 95 295 394 456 691 374z"/>
</g>
</svg>
